HIERARCHY
ROOT Hips
{
	OFFSET 0.000000 0.000000 0.000000
	CHANNELS 6 Xposition Yposition Zposition Xrotation Yrotation Zrotation
	JOINT LeftUpLeg_virtual
	{
		OFFSET 0.000000 0.000000 0.000000
		CHANNELS 3 Xrotation Yrotation Zrotation
		JOINT LeftUpLeg
		{
			OFFSET 13.026900 -6.336304 -1.092800
			CHANNELS 3 Xrotation Yrotation Zrotation
			JOINT LeftLeg
			{
				OFFSET 0.524474 -46.096886 9.782700
				CHANNELS 3 Xrotation Yrotation Zrotation
				JOINT LeftFoot
				{
					OFFSET -0.524474 -53.427422 -12.948200
					CHANNELS 3 Xrotation Yrotation Zrotation
					JOINT LeftToeBase
					{
						OFFSET 0.192200 -14.009700 16.364100
						CHANNELS 3 Xrotation Yrotation Zrotation
						JOINT LeftToe_End
						{
							OFFSET -1.784700 -0.561700 9.474800
							CHANNELS 3 Xrotation Yrotation Zrotation
							End Site
							{
								OFFSET 0 0 0
							}
						}
					}
				}
			}
		}
	}
	JOINT RightUpLeg_virtual
	{
		OFFSET 0.000000 0.000000 0.000000
		CHANNELS 3 Xrotation Yrotation Zrotation
		JOINT RightUpLeg
		{
			OFFSET -12.883000 -6.336304 -1.092800
			CHANNELS 3 Xrotation Yrotation Zrotation
			JOINT RightLeg
			{
				OFFSET -0.524587 -46.096825 9.782800
				CHANNELS 3 Xrotation Yrotation Zrotation
				JOINT RightFoot
				{
					OFFSET 0.524587 -53.427383 -12.948300
					CHANNELS 3 Xrotation Yrotation Zrotation
					JOINT RightToeBase
					{
						OFFSET -0.192200 -14.009700 16.364100
						CHANNELS 3 Xrotation Yrotation Zrotation
						JOINT RightToe_End
						{
							OFFSET 1.784700 -0.561700 9.474800
							CHANNELS 3 Xrotation Yrotation Zrotation
							End Site
							{
								OFFSET 0 0 0
							}
						}
					}
				}
			}
		}
	}
	JOINT Spine_virtual
	{
		OFFSET 0.000000 0.000000 0.000000
		CHANNELS 3 Xrotation Yrotation Zrotation
		JOINT Spine
		{
			OFFSET 0.072000 7.257294 -0.789700
			CHANNELS 3 Xrotation Yrotation Zrotation
			JOINT Spine1
			{
				OFFSET 0.000000 12.508769 -0.658067
				CHANNELS 3 Xrotation Yrotation Zrotation
				JOINT Spine1_split
				{
					OFFSET 0.000000 12.508769 -0.658067
					CHANNELS 3 Xrotation Yrotation Zrotation
					JOINT Spine2
					{
						OFFSET 0.000000 12.508769 -0.658067
						CHANNELS 3 Xrotation Yrotation Zrotation
						JOINT Neck_virtual
						{
							OFFSET 0.000000 0.000000 0.000000
							CHANNELS 3 Xrotation Yrotation Zrotation
							JOINT Neck
							{
								OFFSET 0.000000 14.033295 7.520400
								CHANNELS 3 Xrotation Yrotation Zrotation
								JOINT Head
								{
									OFFSET 0.000000 8.198502 5.703100
									CHANNELS 3 Xrotation Yrotation Zrotation
									JOINT HeadTop_End
									{
										OFFSET 0.000000 17.760803 13.332701
										CHANNELS 3 Xrotation Yrotation Zrotation
										End Site
										{
											OFFSET 0 0 0
										}
									}
								}
							}
						}
						JOINT LeftShoulder_virtual
						{
							OFFSET 0.000000 0.000000 0.000000
							CHANNELS 3 Xrotation Yrotation Zrotation
							JOINT LeftShoulder
							{
								OFFSET 6.292450 5.785301 -0.669000
								CHANNELS 3 Xrotation Yrotation Zrotation
								JOINT LeftShoulder_split
								{
									OFFSET 6.292450 5.785301 -0.669000
									CHANNELS 3 Xrotation Yrotation Zrotation
									JOINT LeftArm
									{
										OFFSET 13.907140 -6.093903 1.965100
										CHANNELS 3 Xrotation Yrotation Zrotation
										JOINT LeftForeArm
										{
											OFFSET 34.140198 0.000000 0.000000
											CHANNELS 3 Xrotation Yrotation Zrotation
											JOINT LeftHand
											{
												OFFSET 40.960209 0.000000 0.000000
												CHANNELS 3 Xrotation Yrotation Zrotation
												End Site
												{
													OFFSET 0 0 0
												}
											}
										}
									}
								}
							}
						}
						JOINT RightShoulder_virtual
						{
							OFFSET 0.000000 0.000000 0.000000
							CHANNELS 3 Xrotation Yrotation Zrotation
							JOINT RightShoulder
							{
								OFFSET -6.292450 5.785301 -0.669000
								CHANNELS 3 Xrotation Yrotation Zrotation
								JOINT RightShoulder_split
								{
									OFFSET -6.292450 5.785301 -0.669000
									CHANNELS 3 Xrotation Yrotation Zrotation
									JOINT RightArm
									{
										OFFSET -13.907140 -6.093903 1.965100
										CHANNELS 3 Xrotation Yrotation Zrotation
										JOINT RightForeArm
										{
											OFFSET -34.140198 0.000000 0.000000
											CHANNELS 3 Xrotation Yrotation Zrotation
											JOINT RightHand
											{
												OFFSET -40.960209 0.000000 0.000000
												CHANNELS 3 Xrotation Yrotation Zrotation
												End Site
												{
													OFFSET 0 0 0
												}
											}
										}
									}
								}
							}
						}
					}
				}
			}
		}
	}
}
MOTION
Frames: 8
Frame Time: 0.03333333
-1.288463 98.027802 0.327427 0.000000 0.000000 0.000000 -19.821860 1.502199 -0.256601 -15.762617 -0.016016 14.228236 52.884826 1.541703 -0.512412 -20.955997 0.377244 -13.400380 -1.687118 -0.622261 -0.717544 0.000000 0.000000 0.000000 -19.350563 1.695849 -0.181128 -11.798134 -8.759357 -17.520156 50.042843 2.296698 0.023608 -23.001212 -2.246925 12.722400 0.459916 0.075107 0.079940 0.000000 0.000000 0.000000 -19.992239 3.638566 -0.601386 19.277762 -1.309517 3.187491 9.563947 -0.233845 1.404869 1.520420 4.373684 -1.263991 0.000000 0.000000 0.000000 8.379347 -0.662964 1.269709 -15.717604 0.778481 -1.958185 -18.368947 -2.277571 1.539886 0.000000 0.000000 0.000000 10.509090 -1.081257 1.487406 1.662283 -7.652472 -6.303688 -8.470322 -1.083046 -5.983646 -7.027819 -17.283107 -53.530279 64.381117 -58.417904 56.738774 0.000000 0.000000 0.000000 9.004687 -0.559625 1.158431 10.503219 -0.604153 14.053289 -2.071780 1.324429 -1.892927 -24.473565 11.014851 63.125851 83.054137 66.694912 -79.380062 0.000000 0.000000 0.000000 
-1.218228 97.939735 0.392952 0.000000 0.000000 0.000000 -19.658189 2.154276 -0.156890 -15.917737 0.047600 14.068714 52.847772 1.566023 -0.325874 -20.784739 0.372188 -13.607082 -1.976623 -0.618744 -0.688961 0.000000 0.000000 0.000000 -19.160465 2.342171 -0.154544 -11.743899 -8.446158 -17.604968 49.907526 2.468168 -0.060808 -23.035433 -2.381093 12.683722 0.248878 0.118130 0.060387 0.000000 0.000000 0.000000 -19.636357 3.675987 -0.534134 19.132343 -1.309932 3.105951 9.498786 -0.376201 1.256315 1.523603 3.472722 -1.398000 0.000000 0.000000 0.000000 8.385318 -0.655249 1.129301 -14.925951 0.827502 -2.403464 -18.654657 -1.714918 1.313983 0.000000 0.000000 0.000000 10.359683 -1.122230 1.543871 1.550118 -8.055749 -6.395744 -7.411208 -0.267176 -5.310493 -8.863600 -15.796124 -53.400198 61.959556 -58.699998 54.042154 0.000000 0.000000 0.000000 9.184911 -0.637766 1.168781 10.697885 -0.748653 15.033562 -3.509734 1.093007 -1.010280 -24.332445 9.040852 59.935654 80.987315 66.418624 -76.102958 0.000000 0.000000 0.000000 
-1.135884 97.875534 0.520760 0.000000 0.000000 0.000000 -19.043971 3.509074 -0.051910 -16.420494 -0.545010 13.774892 53.066055 1.629125 -0.069271 -20.523001 0.124815 -13.447195 -2.258921 -0.616443 -0.624020 0.000000 0.000000 0.000000 -18.533204 4.060490 -0.033335 -11.486841 -8.693978 -17.675568 49.667080 2.476404 -0.069073 -22.990364 -2.796045 12.454420 0.082815 0.113283 0.214502 0.000000 0.000000 0.000000 -19.020521 4.584373 -0.316739 18.903594 -1.353994 2.963925 9.182986 -0.618519 1.081628 1.161646 2.473364 -0.563931 0.000000 0.000000 0.000000 8.205857 -0.789123 1.046228 -13.441240 0.681819 -2.850297 -18.604675 -1.154001 0.500144 0.000000 0.000000 0.000000 9.932654 -1.219954 1.617082 1.336773 -9.267561 -6.689517 -6.644179 0.227754 -4.563282 -10.316352 -14.430969 -51.771912 57.989597 -57.297323 48.241230 0.000000 0.000000 0.000000 9.241711 -0.919402 1.133454 10.798040 -1.231912 16.711960 -4.323379 1.817938 -0.033423 -23.518245 6.070231 53.061212 86.037612 68.605979 -79.421665 0.000000 0.000000 0.000000 
-1.030191 97.887024 0.635822 0.000000 0.000000 0.000000 -18.009271 5.442716 0.018307 -17.212014 -1.841564 13.348091 53.194466 1.682649 0.208110 -20.353933 -0.299122 -13.034331 -2.192189 -0.604947 -0.582109 0.000000 0.000000 0.000000 -17.588070 6.543477 0.110049 -11.112795 -9.483392 -17.759764 49.289391 2.336998 0.016496 -22.981034 -3.470732 12.079709 0.150251 0.080720 0.437904 0.000000 0.000000 0.000000 -18.085347 6.238605 -0.074123 18.615173 -1.486898 2.809596 8.632963 -0.994240 0.940763 0.722031 1.495882 0.710023 0.000000 0.000000 0.000000 7.818491 -1.065527 1.062248 -11.716734 0.301332 -2.859737 -18.293173 -0.559113 -0.751769 0.000000 0.000000 0.000000 9.337620 -1.427638 1.713771 1.083683 -10.894075 -7.271333 -5.525056 -0.004538 -3.978837 -10.875497 -13.651498 -48.853932 53.965161 -54.618793 40.944652 0.000000 0.000000 0.000000 8.972855 -1.384348 1.082485 10.767566 -2.073971 18.435598 -4.574190 2.812856 0.642414 -23.592757 2.438185 44.549970 97.700651 72.237290 -89.456108 0.000000 0.000000 0.000000 
-0.896331 98.037712 0.715946 0.000000 0.000000 0.000000 -16.612057 7.894015 0.048218 -18.187450 -3.733940 12.723926 52.976614 1.626138 0.446177 -20.206264 -0.866038 -12.708002 -1.794761 -0.576939 -0.579100 0.000000 0.000000 0.000000 -16.400894 9.375391 0.223401 -10.656588 -10.795905 -17.886302 48.715757 2.052043 0.222418 -23.059017 -4.319819 11.616806 0.553605 0.055230 0.611972 0.000000 0.000000 0.000000 -16.838508 8.498959 0.109865 18.307806 -1.724020 2.671881 7.928873 -1.506419 0.888800 0.449285 0.980347 1.134623 0.000000 0.000000 0.000000 7.298134 -1.508170 1.229640 -10.114825 -0.408635 -2.072501 -17.888718 -0.117262 -2.119326 0.000000 0.000000 0.000000 8.607739 -1.781959 1.831513 0.863676 -12.591032 -8.075098 -4.338764 -0.458929 -3.691943 -10.444349 -13.417598 -45.030167 51.300513 -51.936933 33.972019 0.000000 0.000000 0.000000 8.298866 -2.014598 1.054990 10.536183 -3.380530 19.320775 -3.310279 3.485346 0.591508 -26.855500 -1.017648 36.427513 118.964028 75.353700 -109.635137 0.000000 0.000000 0.000000 
-0.679382 98.440239 0.799675 0.000000 0.000000 0.000000 -14.990646 10.688038 0.081441 -19.172402 -5.913184 11.864620 52.328313 1.387135 0.569220 -19.845622 -1.508153 -12.744834 -1.384555 -0.535799 -0.575921 0.000000 0.000000 0.000000 -15.043591 12.154001 0.306328 -10.138509 -12.567387 -18.115583 47.820623 1.685538 0.526272 -23.154468 -5.233485 11.173227 1.149061 0.059879 0.656136 0.000000 0.000000 0.000000 -15.409159 11.042410 0.249586 18.002756 -2.072159 2.588235 7.122956 -2.126551 0.950186 0.202814 0.848274 0.647248 0.000000 0.000000 0.000000 6.774082 -2.100660 1.512266 -8.886737 -1.607918 -0.351974 -17.435021 -0.192568 -3.303391 0.000000 0.000000 0.000000 7.796239 -2.227882 1.948005 0.736954 -14.010875 -9.040473 -3.209451 -0.916034 -3.726797 -9.647451 -13.456857 -40.607083 49.938628 -50.398709 27.874946 0.000000 0.000000 0.000000 7.360052 -2.705349 1.078764 10.075478 -4.971024 18.451438 -1.285627 4.010459 0.243132 -34.370905 -2.660773 30.738740 145.419645 75.597886 -135.596809 0.000000 0.000000 0.000000 
-0.370255 99.067749 1.067635 0.000000 0.000000 0.000000 -13.324460 13.567693 0.208218 -19.999439 -7.950081 10.785877 51.260385 1.202182 0.453467 -19.206692 -2.074897 -12.883062 -1.186946 -0.489081 -0.555656 0.000000 0.000000 0.000000 -13.565320 14.707714 0.460422 -9.679716 -14.723629 -18.573304 46.387950 1.366264 0.873217 -23.122250 -6.015468 10.875011 1.721573 0.095486 0.564659 0.000000 0.000000 0.000000 -13.914630 13.555164 0.358283 17.733043 -2.403715 2.543598 6.361323 -2.682035 1.119225 0.453489 0.871293 -0.154288 0.000000 0.000000 0.000000 6.337483 -2.639474 1.830751 -8.241413 -3.201030 2.071459 -17.148134 -0.876926 -4.064325 0.000000 0.000000 0.000000 6.985573 -2.654313 2.076447 0.691797 -15.129646 -10.046349 -2.326243 -1.526833 -4.076907 -9.139452 -13.247060 -36.283440 48.716092 -49.991480 22.224133 0.000000 0.000000 0.000000 6.267699 -3.330455 1.163971 9.339346 -6.562052 15.725136 0.349054 4.246118 0.322805 -46.427658 -1.703877 28.040712 162.364047 73.821245 -152.467594 0.000000 0.000000 0.000000 
-0.015147 99.923454 1.334667 0.000000 0.000000 0.000000 -11.745011 16.073846 0.568071 -20.415628 -9.517340 9.520181 49.704089 1.358114 0.080957 -18.359912 -2.390497 -12.793892 -1.185704 -0.440105 -0.537973 0.000000 0.000000 0.000000 -11.957336 16.786674 0.810292 -9.433366 -17.099536 -19.360159 44.290717 1.168359 1.210464 -22.738398 -6.480000 10.788060 2.031504 0.148638 0.390648 0.000000 0.000000 0.000000 -12.602445 15.938369 0.607028 17.524321 -2.569414 2.497959 5.721167 -2.949227 1.287584 0.789770 0.741426 -0.811308 0.000000 0.000000 0.000000 6.028757 -2.931621 2.065709 -8.328901 -5.133107 4.609282 -17.314359 -2.434556 -4.413988 0.000000 0.000000 0.000000 6.172106 -2.837458 2.158188 0.682607 -16.075656 -11.156675 -1.570533 -2.276093 -4.506750 -9.372130 -12.847951 -32.874698 46.771332 -49.956782 16.554405 0.000000 0.000000 0.000000 5.250843 -3.680247 1.238636 8.267169 -7.673645 11.300017 0.745575 5.129677 0.794226 -60.989484 1.499050 28.293581 166.850880 73.857772 -157.064667 0.000000 0.000000 0.000000 
